<svg width="2287" height="1302" xmlns="http://www.w3.org/2000/svg" xmlns:xlink="http://www.w3.org/1999/xlink" overflow="hidden"><defs><clipPath id="clip0"><rect x="1860" y="609" width="2287" height="1302"/></clipPath><clipPath id="clip1"><rect x="1864" y="693" width="735" height="880"/></clipPath><clipPath id="clip2"><rect x="1864" y="693" width="735" height="880"/></clipPath><clipPath id="clip3"><rect x="1718" y="693" width="881" height="880"/></clipPath></defs><g clip-path="url(#clip0)" transform="translate(-1860 -609)"><g clip-path="url(#clip1)"><g clip-path="url(#clip2)"><g clip-path="url(#clip3)"><path d="M673.447 219.901 494.777 219.901 494.777 41.2314C494.777 33.6409 488.623 27.4876 481.033 27.4876L398.57 27.4876C390.98 27.4876 384.827 33.6409 384.827 41.2314L384.827 219.901 206.157 219.901C183.396 219.927 164.951 238.371 164.926 261.132L164.926 288.62C164.926 296.21 171.079 302.364 178.67 302.364L206.827 302.364 229.743 760.72C232.272 811.936 274.553 852.152 325.831 852.116L553.772 852.116C605.051 852.152 647.332 811.936 649.861 760.72L672.777 302.364 700.934 302.364C708.524 302.364 714.678 296.21 714.678 288.62L714.678 261.132C714.652 238.373 696.206 219.927 673.447 219.901ZM412.314 54.9752 467.29 54.9752 467.29 219.901 412.314 219.901ZM412.314 384.827 412.314 302.364 467.29 302.364 467.29 384.827ZM384.827 384.827 238.472 384.827 234.349 302.364 384.827 302.364ZM622.406 759.345C620.602 795.928 590.4 824.656 553.772 824.629L325.831 824.629C289.204 824.654 259.004 795.928 257.198 759.345L239.847 412.314 639.757 412.314ZM641.132 384.827 494.777 384.827 494.777 302.364 645.255 302.364ZM687.19 274.876 192.413 274.876 192.413 261.132C192.422 253.546 198.571 247.397 206.157 247.389L673.447 247.389C681.033 247.397 687.182 253.546 687.19 261.132Z" fill="#FFFFFF" fill-rule="nonzero" fill-opacity="1" transform="matrix(1 0 0 1.00045 1718.4 693)"/><path d="M329.851 714.678C307.08 714.678 288.62 733.138 288.62 755.91 288.62 778.681 307.08 797.141 329.851 797.141 352.623 797.141 371.083 778.681 371.083 755.91 371.057 733.148 352.613 714.704 329.851 714.678ZM329.851 769.653C322.261 769.653 316.108 763.5 316.108 755.91 316.108 748.32 322.261 742.166 329.851 742.166 337.441 742.166 343.595 748.32 343.595 755.91 343.587 763.496 337.438 769.645 329.851 769.653Z" fill="#FFFFFF" fill-rule="nonzero" fill-opacity="1" transform="matrix(1 0 0 1.00045 1718.4 693)"/><path d="M412.314 659.703C412.314 636.931 393.855 618.471 371.083 618.471 348.311 618.471 329.851 636.931 329.851 659.703 329.851 682.475 348.311 700.934 371.083 700.934 393.844 700.909 412.289 682.464 412.314 659.703ZM371.083 673.447C363.493 673.447 357.339 667.293 357.339 659.703 357.339 652.113 363.493 645.959 371.083 645.959 378.673 645.959 384.827 652.113 384.827 659.703 384.818 667.289 378.669 673.438 371.083 673.447Z" fill="#FFFFFF" fill-rule="nonzero" fill-opacity="1" transform="matrix(1 0 0 1.00045 1718.4 693)"/><path d="M508.521 700.934C531.293 700.934 549.752 682.475 549.752 659.703 549.752 636.931 531.293 618.471 508.521 618.471 485.749 618.471 467.29 636.931 467.29 659.703 467.315 682.463 485.761 700.909 508.521 700.934ZM508.521 645.959C516.111 645.959 522.265 652.113 522.265 659.703 522.265 667.293 516.111 673.447 508.521 673.447 500.931 673.447 494.777 667.293 494.777 659.703 494.786 652.116 500.934 645.968 508.521 645.959Z" fill="#FFFFFF" fill-rule="nonzero" fill-opacity="1" transform="matrix(1 0 0 1.00045 1718.4 693)"/><path d="M439.802 714.678C417.03 714.678 398.57 733.138 398.57 755.91 398.57 778.681 417.03 797.141 439.802 797.141 462.574 797.141 481.033 778.681 481.033 755.91 481.008 733.148 462.563 714.704 439.802 714.678ZM439.802 769.653C432.212 769.653 426.058 763.5 426.058 755.91 426.058 748.32 432.212 742.166 439.802 742.166 447.392 742.166 453.546 748.32 453.546 755.91 453.537 763.496 447.388 769.645 439.802 769.653Z" fill="#FFFFFF" fill-rule="nonzero" fill-opacity="1" transform="matrix(1 0 0 1.00045 1718.4 693)"/><path d="M549.752 714.678C526.981 714.678 508.521 733.138 508.521 755.91 508.521 778.681 526.981 797.141 549.752 797.141 572.524 797.141 590.984 778.681 590.984 755.91 590.958 733.15 572.512 714.704 549.752 714.678ZM549.752 769.653C542.162 769.653 536.009 763.5 536.009 755.91 536.009 748.32 542.162 742.166 549.752 742.166 557.342 742.166 563.496 748.32 563.496 755.91 563.488 763.496 557.339 769.645 549.752 769.653Z" fill="#FFFFFF" fill-rule="nonzero" fill-opacity="1" transform="matrix(1 0 0 1.00045 1718.4 693)"/></g></g></g><text fill="#FFFFFF" fill-opacity="1" font-family="Aller Display,Aller Display_MSFontService,sans-serif" font-style="normal" font-variant="normal" font-weight="400" font-stretch="normal" font-size="440" text-anchor="start" direction="ltr" writing-mode="lr-tb" unicode-bidi="normal" text-decoration="none" transform="matrix(1 0 0 1 2568.24 1164)">ask<tspan fill="#FFFFFF" fill-opacity="1" font-family="Aller Display,Aller Display_MSFontService,sans-serif" font-style="normal" font-variant="normal" font-weight="400" font-stretch="normal" font-size="440" text-anchor="start" direction="ltr" writing-mode="lr-tb" unicode-bidi="normal" text-decoration="none" x="0" y="370">auntie</tspan></text></g></svg>